# AST/ASF file generated using VICON BodyLanguage
# -----------------------------------------------
:version 1.10
:name VICON
:units
  mass 1.0
  length 0.45
  angle deg
:documentation
   .ast/.asf automatically generated from VICON data using
   VICON BodyBuilder and BodyLanguage model FoxedUp or BRILLIANT.MOD
:root
   order TX TY TZ RX RY RZ
   axis XYZ
   position 0 0 0  
   orientation 0 0 0 
:bonedata
  begin
     id 1 
     name lhipjoint
     direction 0.612567 -0.751349 0.245431 
     length 2.42285 
     axis 0 0 0  XYZ
  end
  begin
     id 2 
     name lfemur
     direction 0.34202 -0.939693 0  
     length 7.11304  
     axis 0 0 20  XYZ
    dof rx ry rz
    limits (-160.0 20.0)
           (-70.0 70.0)
           (-60.0 70.0)
  end
  begin
     id 3 
     name ltibia
     direction 0.34202 -0.939693 0   
     length 7.84529   
     axis 0 0 20   XYZ
    dof rx
    limits (-10.0 170.0)
  end
  begin
     id 4 
     name lfoot
     direction 0.0779239 -0.214094 0.9737   
     length 1.97176   
     axis -90 7.62852e-016 20   XYZ
    dof rx rz
    limits (-45.0 90.0)
           (-70.0 20.0)
  end
  begin
     id 5 
     name ltoes
     direction 1.53565e-011 -4.21709e-011 1   
     length 0.993197   
     axis -90 7.62852e-016 20   XYZ
    dof rx
    limits (-90.0 20.0)
  end
  begin
     id 6 
     name rhipjoint
     direction -0.665722 -0.709315 0.231701   
     length 2.56642  
     axis 0 0 0  XYZ 
  end
  begin
     id 7 
     name rfemur
     direction -0.34202 -0.939693 0   
     length 7.32108   
     axis 0 0 -20   XYZ
    dof rx ry rz
    limits (-160.0 20.0)
           (-70.0 70.0)
           (-70.0 60.0)
  end
  begin
     id 8 
     name rtibia
     direction -0.34202 -0.939693 0   
     length 7.81254   
     axis 0 0 -20   XYZ
    dof rx
    limits (-10.0 170.0)
 end
 begin
     id 9 
     name rfoot
     direction -0.0832806 -0.228812 0.969902   
     length 2.08278  
     axis -90 -7.62852e-016 -20   XYZ
    dof rx rz
    limits (-45.0 90.0)
           (-20.0 70.0)
  end
  begin
     id 10 
     name rtoes
     direction -1.53589e-011 -4.22086e-011 1   
     length 1.04609   
     axis -90 -7.62852e-016 -20   XYZ
    dof rx
    limits (-90.0 20.0)
  end
  begin
     id 11 
     name lowerback
     direction -0.00506013 0.988403 -0.151766   
     length 2.01978   
     axis 0 0 0   XYZ
    dof rx ry rz
    limits (-20.0 45.0)
           (-30.0 30.0)
           (-30.0 30.0)
  end
  begin
     id 12 
     name upperback
     direction -0.00836389 0.99968 0.0238859   
     length 2.01276   
     axis 0 0 0   XYZ
    dof rx ry rz
    limits (-20.0 45.0)
           (-30.0 30.0)
           (-30.0 30.0)
  end
  begin
     id 13 
     name thorax
     direction -0.00684136 0.995386 0.0957043   
     length 2.07303   
     axis 0 0 0   XYZ
    dof rx ry rz
    limits (-20.0 45.0)
           (-30.0 30.0)
           (-30.0 30.0)
  end
  begin
     id 14 
     name lowerneck
     direction -0.0161045 0.999661 0.0204485   
     length 1.91243   
     axis 0 0 0   XYZ
    dof rx ry rz
    limits (-20.0 45.0)
           (-30.0 30.0)
           (-30.0 30.0)
  end
  begin
     id 15 
     name upperneck
     direction 0.0553583 0.990946 -0.122319   
     length 1.91574   
     axis 0 0 0   XYZ
    dof rx ry rz
    limits (-20.0 45.0)
           (-30.0 30.0)
           (-30.0 30.0)
  end
  begin
     id 16
     name head
     direction 0.0180273 0.998839 -0.0446756  
     length 1.92693  
     axis 0 0 0   XYZ
    dof rx ry rz
    limits (-20.0 45.0)
           (-30.0 30.0)
           (-30.0 30.0)
  end
  begin
     id 17 
     name lclavicle
     direction 0.945646 0.319323 -0.0615358  
     length 4.0076  
     axis 0 0 0   XYZ
    dof ry rz
    limits (-20.0 10.0)
           (0.0 20.0)
  end
  begin
     id 18 
     name lhumerus
     direction 1 -4.48967e-011 -2.79996e-027   
     length 5.64147   
     axis 180 -30 -90   XYZ
    dof rx ry rz
    limits (-60.0 90.0)
           (-90.0 90.0)
           (-90.0 90.0)
  end
  begin
     id 19
     name lradius
     direction 1 -4.48976e-011 -9.5122e-027   
     length 2.86444   
     axis 180 -30 -90   XYZ
    dof rx
    limits (-10.0 170.0)
  end
  begin
     id 20
     name lwrist
     direction 1 -4.48983e-011 -1.24047e-026   
     length 1.43222   
     axis 9.05591e-015 90 90   XYZ
    dof ry
    limits (-180.0 0.0)
 end
  begin
     id 21 
     name lhand
     direction 1 -4.4892e-011 -2.48094e-026   
     length 0.722123   
     axis 1.58305e-014 90 90   XYZ
    dof rx rz
    limits (-90.0 90.0)
           (-45.0 45.0)
  end
  begin
     id 22 
     name lfingers
     direction 1 -4.48895e-011 -4.96187e-026   
     length 0.582194   
     axis 3.1661e-014 90 90   XYZ
    dof rx
    limits (0.0 90.0)
  end
  begin
     id 23
     name lthumb
     direction 0.707107 -6.34961e-011 0.707107   
     length 0.835918   
     axis -90 45 2.85299e-015   XYZ
    dof rx rz
    limits (-45.0 45.0)
           (-45.0 45.0)
  end
  begin
     id 24 
     name rclavicle
     direction -0.932635 0.324218 -0.15835   
     length 3.65819  
     axis 0 0 0   XYZ 
    dof ry rz
    limits (-10.0 20.0)
           (-20.0 0.0)
  end
  begin
     id 25 
     name rhumerus
     direction -1 -4.48965e-011 -4.02296e-027  
     length 5.44729   
     axis 180 30 90   XYZ
    dof rx ry rz
    limits (-90.0 60.0)
           (-90.0 90.0)
           (-90.0 90.0)
  end
  begin
     id 26 
     name rradius
     direction -1 -4.48957e-011 -8.81087e-027   
     length 3.08821   
     axis 180 30 90   XYZ
    dof rx
    limits (-10.0 170.0)
  end
  begin
     id 27 
     name rwrist
     direction -1 -4.49015e-011 -1.24047e-026   
     length 1.5441   
     axis 9.05591e-015 -90 -90   XYZ
    dof ry
    limits (-180.0 0.0)
  end
  begin
     id 28
     name rhand
     direction -1 -4.4891e-011 -2.48094e-026   
     length 0.821049   
     axis 1.58305e-014 -90 -90   XYZ
    dof rx rz
    limits (-90.0 90.0)
           (-45.0 45.0)
  end
  begin
     id 29
     name rfingers
     direction -1 -4.48985e-011 -4.96187e-026   
     length 0.661951   
     axis 3.1661e-014 -90 -90   XYZ
    dof rx
    limits (0.0 90.0)
  end
  begin
     id 30
     name rthumb
     direction -0.707107 -6.34906e-011 0.707107   
     length 0.950433   
     axis -90 -45 -2.85299e-015   XYZ
    dof rx rz
    limits (-45.0 45.0)
           (-45.0 45.0)
  end
:hierarchy
  begin
    root lhipjoint rhipjoint lowerback
    lhipjoint lfemur
    lfemur ltibia
    ltibia lfoot
    lfoot ltoes
    rhipjoint rfemur
    rfemur rtibia
    rtibia rfoot
    rfoot rtoes
    lowerback upperback
    upperback thorax
    thorax lowerneck lclavicle rclavicle
    lowerneck upperneck
    upperneck head
    lclavicle lhumerus
    lhumerus lradius
    lradius lwrist
    lwrist lhand lthumb
    lhand lfingers
    rclavicle rhumerus
    rhumerus rradius
    rradius rwrist
    rwrist rhand rthumb
    rhand rfingers
  end

#!OML:ASF F:\VICON\USERDATA\INSTALL\rory3\rory3.ASF
:FULLY-SPECIFIED
:DEGREES
2305
root 3.81513 17.6214 -0.263368 177.537 104.588 178.263
lowerback -3.23118 -1.26042 -1.6894
upperback -7.32882 -1.61639 -3.43591
thorax -5.85332 -0.726467 -2.61216
lowerneck -1.56789 10.3992 -1.09618
upperneck 9.40756 13.4192 10.5349
head 2.45951 7.09846 3.92404
rclavicle -3.10104e-014 6.36111e-015
rhumerus -43.4062 8.60439 -91.535
rradius 100.871
rwrist -6.16241
rhand -16.0657 27.2537
rfingers 7.12502
rthumb 10.1368 -2.48214
lclavicle -3.10104e-014 6.36111e-015
lhumerus -55.6276 -29.3029 101.779
lradius 109.998
lwrist 57.5247
lhand -3.01658 -2.29609
lfingers 7.12502
lthumb 22.6981 26.389
rfemur -1.79621 6.8623 17.1144
rtibia 17.9044
rfoot -16.5455 -0.374953
rtoes -8.87576
lfemur 5.63088 6.37553 -18.2062
ltibia 9.3801
lfoot -15.9968 5.43463
ltoes 0.465266
2306
root 3.81284 17.622 -0.263151 177.244 104.378 177.927
lowerback -3.21795 -1.2416 -1.63717
upperback -7.33499 -1.59005 -3.38775
thorax -5.86612 -0.714826 -2.59129
lowerneck -1.49127 10.352 -1.15382
upperneck 9.32813 13.3636 10.5377
head 2.41809 7.06527 3.92339
rclavicle 1.98785e-014 4.13472e-014
rhumerus -43.3739 8.58914 -91.5702
rradius 100.847
rwrist -6.1825
rhand -15.9408 27.3368
rfingers 7.12502
rthumb 10.2573 -2.39313
lclavicle 1.98785e-014 4.13472e-014
lhumerus -55.4986 -29.3016 101.725
lradius 109.976
lwrist 57.5741
lhand -3.01329 -2.18512
lfingers 7.12502
lthumb 22.7012 26.4995
rfemur -1.76993 6.80654 17.2145
rtibia 17.858
rfoot -16.6449 -0.475544
rtoes -8.51293
lfemur 5.52888 6.1409 -18.1181
ltibia 9.41583
lfoot -15.9999 5.42605
ltoes 0.409256
2307
root 3.80979 17.622 -0.262274 177.174 104.114 177.887
lowerback -3.13401 -1.23712 -1.64722
upperback -7.31683 -1.58772 -3.39603
thorax -5.89452 -0.713485 -2.59298
lowerneck -1.53073 10.3184 -1.1435
upperneck 9.39547 13.3117 10.5951
head 2.44821 7.04523 3.94839
rclavicle -1.74931e-014 -9.54166e-015
rhumerus -43.3458 8.5557 -91.6135
rradius 100.776
rwrist -6.07272
rhand -15.9081 27.662
rfingers 7.12502
rthumb 10.2888 -2.06632
lclavicle -1.74931e-014 -9.54166e-015
lhumerus -55.4417 -29.2946 101.65
lradius 109.959
lwrist 57.5093
lhand -2.89586 -2.20844
lfingers 7.12502
lthumb 22.8139 26.4624
rfemur -1.68469 6.78904 17.2515
rtibia 17.8561
rfoot -16.7226 -0.73103
rtoes -9.0051
lfemur 5.53087 5.84659 -18.0944
ltibia 9.36411
lfoot -15.9251 5.45408
ltoes 0.485951
2308
root 3.80887 17.6225 -0.262953 177.757 103.875 178.517
lowerback -3.09414 -1.22313 -1.75493
upperback -7.28413 -1.57234 -3.47454
thorax -5.88174 -0.70183 -2.61447
lowerneck -1.49789 10.2924 -1.08232
upperneck 9.39222 13.2752 10.6159
head 2.4463 7.0298 3.94275
rclavicle 1.82882e-014 3.18055e-015
rhumerus -43.3059 8.51965 -91.6773
rradius 100.738
rwrist -5.97928
rhand -15.9658 27.9127
rfingers 7.12502
rthumb 10.2332 -1.81838
lclavicle 1.82882e-014 3.18055e-015
lhumerus -55.3468 -29.3572 101.565
lradius 109.956
lwrist 57.5655
lhand -2.94446 -2.2328
lfingers 7.12502
lthumb 22.7673 26.4438
rfemur -1.60108 6.67241 17.0784
rtibia 17.8639
rfoot -16.7946 -0.883052
rtoes -9.52646
lfemur 5.55161 5.59454 -18.2701
ltibia 9.29941
lfoot -15.8606 5.49168
ltoes 0.506105
2309
root 3.80774 17.6223 -0.262368 178.392 103.723 179.171
lowerback -3.0896 -1.20173 -1.91426
upperback -7.26284 -1.5445 -3.5117
thorax -5.85768 -0.67976 -2.56455
lowerneck -1.50263 10.2874 -1.07309
upperneck 9.39747 13.2662 10.6571
head 2.44733 7.02776 3.95572
rclavicle -3.10104e-014 1.27222e-014
rhumerus -43.2173 8.55069 -91.7071
rradius 100.687
rwrist -6.0139
rhand -15.9088 28.0306
rfingers 7.12502
rthumb 10.2881 -1.69777
lclavicle -3.10104e-014 1.27222e-014
lhumerus -55.2521 -29.4194 101.526
lradius 109.938
lwrist 57.6675
lhand -2.99556 -2.20653
lfingers 7.12502
lthumb 22.7182 26.476
rfemur -1.58268 6.61029 16.9037
rtibia 17.8888
rfoot -16.8153 -1.00203
rtoes -9.60292
lfemur 5.57229 5.43635 -18.4438
ltibia 9.2025
lfoot -15.8123 5.57804
ltoes 0.344378
2310
root 3.80632 17.6232 -0.261824 178.54 103.547 179.325
lowerback -3.06139 -1.20083 -1.94022
upperback -7.23943 -1.54463 -3.5252
thorax -5.84856 -0.678908 -2.56358
lowerneck -1.69984 10.2822 -1.09998
upperneck 9.5696 13.2407 10.7899
head 2.53249 7.0286 4.03112
rclavicle 2.98177e-014 6.36111e-015
rhumerus -43.1159 8.58884 -91.7713
rradius 100.608
rwrist -5.87371
rhand -15.7762 28.0575
rfingers 7.12502
rthumb 10.4161 -1.66445
lclavicle 2.98177e-014 6.36111e-015
lhumerus -55.1475 -29.4584 101.455
lradius 109.923
lwrist 57.8219
lhand -2.98205 -2.1064
lfingers 7.12502
lthumb 22.7312 26.5746
rfemur -1.57517 6.54776 16.8712
rtibia 17.9404
rfoot -16.8821 -1.10384
rtoes -9.46025
lfemur 5.62649 5.24131 -18.4863
ltibia 9.04689
lfoot -15.7073 5.76229
ltoes -0.421259
2311
root 3.80547 17.6234 -0.263237 178.548 103.275 179.299
lowerback -3.05732 -1.22435 -1.90531
upperback -7.23918 -1.57546 -3.5294
thorax -5.85274 -0.69601 -2.58688
lowerneck -1.84381 10.2626 -1.10464
upperneck 9.73595 13.1995 10.8583
head 2.61329 7.01881 4.07712
rclavicle -2.22639e-014 -6.36111e-015
rhumerus -43.0827 8.61839 -91.8324
rradius 100.607
rwrist -5.7082
rhand -15.7556 27.9947
rfingers 7.12502
rthumb 10.4359 -1.72626
lclavicle -2.22639e-014 -6.36111e-015
lhumerus -55.0042 -29.5442 101.396
lradius 109.869
lwrist 57.9621
lhand -2.90517 -2.10873
lfingers 7.12502
lthumb 22.805 26.5632
rfemur -1.58144 6.46222 16.8796
rtibia 17.9817
rfoot -17.0482 -1.1183
rtoes -9.14174
lfemur 5.62092 4.95124 -18.4915
ltibia 8.90652
lfoot -15.6071 5.821
ltoes -0.519358
